<svg width="25" height="20" viewBox="0 0 25 20" fill="none" xmlns="http://www.w3.org/2000/svg">
<g clip-path="url(#clip0)">
<path fill-rule="evenodd" clip-rule="evenodd" d="M0 1.25C0 0.559644 0.569132 0 1.23975 0H23.7602C24.4449 0 25 0.554831 25 1.25C25 1.94036 24.4309 2.5 23.7602 2.5H1.23975C0.555057 2.5 0 1.94517 0 1.25V1.25ZM0 10C0 9.30964 0.569132 8.75 1.23975 8.75H23.7602C24.4449 8.75 25 9.30483 25 10C25 10.6904 24.4309 11.25 23.7602 11.25H1.23975C0.555057 11.25 0 10.6952 0 10V10ZM0 18.75C0 18.0596 0.569132 17.5 1.23975 17.5H23.7602C24.4449 17.5 25 18.0548 25 18.75C25 19.4404 24.4309 20 23.7602 20H1.23975C0.555057 20 0 19.4452 0 18.75V18.75Z" fill="#574DFA"/>
</g>
<defs>
<clipPath id="clip0">
<rect width="25" height="20" fill="white"/>
</clipPath>
</defs>
</svg>
