<svg width="24" height="20" viewBox="0 0 24 20" fill="none" xmlns="http://www.w3.org/2000/svg">
<path fill-rule="evenodd" clip-rule="evenodd" d="M0 0.991803C0 0.444045 0.447469 0 1.00069 0H22.9993C23.552 0 24 0.455306 24 0.991803V19.0082C24 19.556 23.5525 20 22.9993 20H1.00069C0.448026 20 0 19.5447 0 19.0082V0.991803ZM2 0.991803V2H1.00069C1.54843 2 2 1.55227 2 0.991803ZM22 2H2V18H1.00069C1.55599 18 2 18.4435 2 19.0082V18H22V19.0082C22 18.4477 22.4516 18 22.9993 18H22V2ZM22 2V0.991803C22 1.55648 22.444 2 22.9993 2H22ZM8.67226 8.85634L6.41817 11.1231L5 9.71283L7.9704 6.72576L8.6867 6.00544L9.39567 6.73298L13.8177 11.2709L18.9957 6L20.4224 7.40158L14.5282 13.4016L13.812 14.1307L13.0987 13.3987L8.67226 8.85634Z" fill="#574DFA"/>
</svg>
