<svg width="25" height="25" viewBox="0 0 25 25" fill="none" xmlns="http://www.w3.org/2000/svg">
<g id="iconspace_Recycle Bin_25px">
<path id="Path" fill-rule="evenodd" clip-rule="evenodd" d="M8.19163 4L9.05343 2.27639C9.13813 2.107 9.31126 2 9.50065 2H15.5006C15.69 2 15.8632 2.107 15.9479 2.27639L16.8097 4H22.4823C22.7584 4 22.9823 4.22386 22.9823 4.5C22.9823 4.77614 22.7584 5 22.4823 5H21.0015L20.1327 20.6387C20.0591 21.9635 18.9634 23 17.6366 23H7.42052C6.09369 23 4.99797 21.9635 4.92437 20.6387L4.05556 5H2.5C2.22386 5 2 4.77614 2 4.5C2 4.22386 2.22386 4 2.5 4H8.19163ZM5.0571 5L5.92283 20.5832C5.96699 21.3781 6.62442 22 7.42052 22H17.6366C18.4327 22 19.0901 21.3781 19.1343 20.5832L20 5H5.0571ZM15.6916 4H9.30966L9.80966 3H15.1916L15.6916 4Z" fill="#2E2E2E"/>
<path id="Path_2" fill-rule="evenodd" clip-rule="evenodd" d="M15.5441 9.49454L15.4544 17.5575C15.4684 17.8333 15.7034 18.0454 15.9792 18.0313C16.255 18.0173 16.4671 17.7823 16.4531 17.5065L16.5428 9.44353C16.5288 9.16775 16.2938 8.9556 16.018 8.96969C15.7422 8.98377 15.5301 9.21876 15.5441 9.49454ZM9.5454 17.5575L9.45561 9.49458C9.46969 9.2188 9.25754 8.98381 8.98176 8.96973C8.70598 8.95564 8.47099 9.16779 8.45691 9.44357L8.5467 17.5065C8.53262 17.7823 8.74476 18.0173 9.02055 18.0314C9.29633 18.0455 9.53131 17.8333 9.5454 17.5575ZM12 9.49999V17.5C12 17.7761 12.2238 18 12.5 18C12.7761 18 13 17.7761 13 17.5V9.49999C13 9.22385 12.7761 8.99999 12.5 8.99999C12.2238 8.99999 12 9.22385 12 9.49999Z" fill="#2E2E2E"/>
</g>
</svg>
