<svg width="70" height="70" viewBox="0 0 70 70" fill="none" xmlns="http://www.w3.org/2000/svg">
<circle cx="35" cy="35" r="35" fill="#574DFA"/>
<path fill-rule="evenodd" clip-rule="evenodd" d="M14 15H55V56H14V15Z" stroke="white" stroke-opacity="0.01"/>
<path d="M33.68 34.68V22.38C33.68 21.9271 34.0471 21.56 34.5 21.56C34.9529 21.56 35.32 21.9271 35.32 22.38V34.68H47.62C48.0729 34.68 48.44 35.0471 48.44 35.5C48.44 35.9529 48.0729 36.32 47.62 36.32H35.32V48.62C35.32 49.0729 34.9529 49.44 34.5 49.44C34.0471 49.44 33.68 49.0729 33.68 48.62V36.32H21.38C20.9271 36.32 20.56 35.9529 20.56 35.5C20.56 35.0471 20.9271 34.68 21.38 34.68H33.68Z" fill="white" stroke="white" stroke-opacity="0.01"/>
</svg>
