<svg width="40" height="40" viewBox="0 0 40 40" fill="none" xmlns="http://www.w3.org/2000/svg">
<g id="iconspace_Recycle Bin_25px">
<path id="Path" fill-rule="evenodd" clip-rule="evenodd" d="M13.1066 6.40001L14.4855 3.64224C14.621 3.37121 14.898 3.20001 15.201 3.20001H24.801C25.1041 3.20001 25.3811 3.37121 25.5166 3.64224L26.8955 6.40001H35.9716C36.4134 6.40001 36.7716 6.75818 36.7716 7.20001C36.7716 7.64184 36.4134 8.00001 35.9716 8.00001H33.6025L32.2124 33.0219C32.0946 35.1416 30.3415 36.8 28.2185 36.8H11.8728C9.74991 36.8 7.99676 35.1416 7.879 33.0219L6.4889 8.00001H4.00001C3.55818 8.00001 3.20001 7.64184 3.20001 7.20001C3.20001 6.75818 3.55818 6.40001 4.00001 6.40001H13.1066ZM8.09131 8L9.47648 32.9331C9.54714 34.2049 10.599 35.2 11.8728 35.2H28.2185C29.4922 35.2 30.5441 34.2049 30.6148 32.9331L32 8H8.09131ZM25.1067 6.4H14.8955L15.6955 4.8H24.3067L25.1067 6.4Z" fill="#FA4D77"/>
<path id="Path_2" fill-rule="evenodd" clip-rule="evenodd" d="M24.8707 15.1913L24.727 28.092C24.7495 28.5332 25.1255 28.8727 25.5668 28.8501C26.008 28.8276 26.3475 28.4516 26.3249 28.0104L26.4686 15.1096C26.446 14.6684 26.0701 14.329 25.6288 14.3515C25.1876 14.374 24.8481 14.75 24.8707 15.1913ZM15.2727 28.092L15.129 15.1913C15.1515 14.7501 14.8121 14.3741 14.3708 14.3516C13.9296 14.329 13.5536 14.6685 13.5311 15.1097L13.6747 28.0104C13.6522 28.4517 13.9916 28.8277 14.4329 28.8502C14.8741 28.8727 15.2501 28.5333 15.2727 28.092ZM19.2 15.2V28C19.2 28.4418 19.5582 28.8 20 28.8C20.4419 28.8 20.8 28.4418 20.8 28V15.2C20.8 14.7582 20.4419 14.4 20 14.4C19.5582 14.4 19.2 14.7582 19.2 15.2Z" fill="#FA4D77"/>
</g>
</svg>
