<svg width="43" height="43" viewBox="0 0 43 43" fill="none" xmlns="http://www.w3.org/2000/svg">
<g id="iconspace_Add_25px">
<path id="Path" fill-rule="evenodd" clip-rule="evenodd" d="M1 1H42V42H1V1Z" stroke="white" stroke-opacity="0.01"/>
<path id="Path_2" d="M20.68 20.68V8.38C20.68 7.92712 21.0471 7.56 21.5 7.56C21.9529 7.56 22.32 7.92712 22.32 8.38V20.68H34.62C35.0729 20.68 35.44 21.0471 35.44 21.5C35.44 21.9529 35.0729 22.32 34.62 22.32H22.32V34.62C22.32 35.0729 21.9529 35.44 21.5 35.44C21.0471 35.44 20.68 35.0729 20.68 34.62V22.32H8.38C7.92712 22.32 7.56 21.9529 7.56 21.5C7.56 21.0471 7.92712 20.68 8.38 20.68H20.68Z" fill="white" stroke="white" stroke-opacity="0.01"/>
</g>
</svg>
